<svg xmlns="http://www.w3.org/2000/svg" shape-rendering="geometricPrecision" text-rendering="geometricPrecision" image-rendering="optimizeQuality" fill-rule="evenodd" clip-rule="evenodd" viewBox="0 0 497 512.294"><circle fill="#FBD433" transform="matrix(2.56497 -.68729 .68728 2.56499 248.5 248.502)" r="93.558"/><path fill="#40270E" fill-rule="nonzero" d="M106.037 120.932c-4.035 3.715-10.321 3.453-14.037-.583-3.715-4.036-3.453-10.322.583-14.037 10.342-9.555 22.62-16.168 35.187-20.494 14.939-5.14 30.456-7.058 43.566-6.853 5.475.085 9.846 4.596 9.761 10.071-.085 5.476-4.596 9.846-10.071 9.761-10.991-.171-24.078 1.463-36.802 5.842-10.196 3.51-20.054 8.781-28.187 16.293zm229.062 308.666c-50.804 28.191-119.848 30.471-170.856 4.226-57.417-29.54-63.655-69.72-71.965-123.985 35.337 7.531 111.239 15.16 173.96 14.775 53.85-.332 108.537-5.077 138.487-14.191-4.986 53.441-17.046 89.997-69.626 119.175zm4.174-283.207v9.507c3.792.578 7.13 1.482 9.987 2.708 3.568 1.546 6.658 3.852 9.321 6.966 2.093 2.379 3.71 4.828 4.851 7.324 1.142 2.521 1.712 4.804 1.712 6.896 0 2.33-.856 4.351-2.544 6.04-1.712 1.688-3.756 2.544-6.182 2.544-4.566 0-7.538-2.473-8.87-7.396-1.282-4.811-4.034-8.298-8.275-10.433v28.62c4.467 1.273 8.134 2.458 10.962 3.547a27.895 27.895 0 019.179 5.635c2.877 2.544 5.112 5.611 6.682 9.155 1.545 3.566 2.329 7.441 2.329 11.675 0 5.301-1.237 10.248-3.733 14.861-2.497 4.637-6.159 8.393-10.986 11.342-4.155 2.505-8.956 4.137-14.433 4.898v21.421c0 8.968-14.247 8.976-14.247 0v-21.315c-4.355-.684-8.242-1.851-11.646-3.482-4.066-1.95-7.466-4.376-10.177-7.277-2.711-2.924-4.732-5.945-6.015-9.059-1.308-3.139-1.951-6.23-1.951-9.249 0-2.211.857-4.234 2.616-6.016 1.735-1.783 3.9-2.687 6.491-2.687 2.092 0 3.852.476 5.303 1.451 1.427.974 2.425 2.354 2.996 4.112 1.236 3.805 2.33 6.731 3.257 8.751.951 2.021 2.354 3.876 4.233 5.54 1.325 1.174 2.955 2.158 4.893 2.944v-32.252c-5.089-1.53-9.413-3.189-13.002-5.003-4.184-2.116-7.584-5.112-10.176-9.012-2.592-3.899-3.899-8.917-3.899-15.052 0-7.988 2.543-14.551 7.632-19.64 4.62-4.642 11.102-7.517 19.445-8.632v-9.432c0-8.938 14.247-8.939 14.247 0zm0 71.064v28.849c3.349-1.049 6.032-2.691 8.061-4.928 2.545-2.853 3.829-6.135 3.829-9.914 0-4.043-1.236-7.158-3.733-9.37-1.968-1.76-4.692-3.312-8.157-4.637zm-14.247-22.687v-24.774c-2.68 1.021-4.857 2.255-6.534 3.711-2.188 1.903-3.282 4.804-3.282 8.655 0 3.661 1.023 6.444 3.068 8.323 1.596 1.467 3.846 2.832 6.748 4.085zm-152.732-38.917c3.924.576 7.369 1.494 10.305 2.755 3.568 1.546 6.658 3.852 9.321 6.966 2.093 2.379 3.71 4.828 4.851 7.324 1.142 2.521 1.712 4.804 1.712 6.896 0 2.33-.856 4.351-2.544 6.04-1.712 1.688-3.756 2.544-6.182 2.544-4.566 0-7.538-2.473-8.87-7.396-1.313-4.931-4.173-8.471-8.593-10.59v28.687c4.61 1.307 8.385 2.524 11.28 3.637a27.895 27.895 0 019.179 5.635c2.877 2.544 5.112 5.611 6.682 9.155 1.545 3.566 2.329 7.441 2.329 11.675 0 5.301-1.236 10.248-3.733 14.861-2.497 4.637-6.158 8.393-10.986 11.342-4.234 2.554-9.141 4.202-14.751 4.942v21.291c0 8.939-14.247 8.94-14.247 0v-21.28c-4.226-.691-8.008-1.84-11.328-3.431-4.066-1.95-7.466-4.376-10.177-7.277-2.711-2.924-4.732-5.945-6.015-9.059-1.308-3.139-1.951-6.23-1.951-9.249 0-2.211.857-4.234 2.616-6.016 1.735-1.783 3.9-2.687 6.491-2.687 2.092 0 3.852.476 5.303 1.451 1.427.974 2.425 2.354 2.996 4.112 1.236 3.805 2.33 6.731 3.257 8.751.951 2.021 2.354 3.876 4.233 5.54 1.251 1.108 2.776 2.049 4.575 2.812v-32.216c-4.95-1.504-9.169-3.13-12.684-4.907-4.184-2.116-7.584-5.112-10.176-9.012-2.592-3.899-3.899-8.917-3.899-15.052 0-7.988 2.543-14.551 7.632-19.64 4.561-4.582 10.936-7.446 19.127-8.589v-9.561c0-8.939 14.247-8.94 14.247 0v9.546zm0 61.484v29.066c3.498-1.044 6.286-2.717 8.379-5.025 2.545-2.853 3.829-6.135 3.829-9.914 0-4.043-1.236-7.158-3.733-9.37-2.029-1.813-4.858-3.404-8.475-4.757zm-14.247-22.707v-24.511c-2.535.997-4.606 2.189-6.216 3.588-2.188 1.903-3.282 4.804-3.282 8.655 0 3.661 1.023 6.444 3.068 8.323 1.537 1.412 3.682 2.73 6.43 3.945zm246.372-88.316c4.036 3.715 4.298 10.001.583 14.037-3.715 4.036-10.001 4.298-14.037.583-8.133-7.512-17.991-12.783-28.187-16.293-12.724-4.379-25.811-6.013-36.802-5.842-5.475.085-9.986-4.285-10.071-9.761-.085-5.475 4.286-9.986 9.761-10.071 13.111-.205 28.627 1.713 43.567 6.853 12.566 4.326 24.844 10.939 35.186 20.494z"/><path fill="#05E005" d="M329.812 339.142c.273 61.557 4.593 160.316-63.02 171.639a111.379 111.379 0 01-36.598 0c-67.741-11.344-64.545-110.515-64.508-171.962 31.404 2.04 66.945 2.951 100.618 2.744 22.326-.137 43.78-.912 63.508-2.421z"/><path fill="#404040" fill-rule="nonzero" d="M253.439 367.074c3.549.49 6.653 1.299 9.284 2.429 3.066 1.328 5.722 3.311 8.011 5.988 1.799 2.045 3.189 4.15 4.171 6.296.979 2.167 1.471 4.128 1.471 5.928 0 2.003-.736 3.74-2.188 5.19-1.471 1.451-3.229 2.188-5.313 2.188-3.925 0-6.48-2.126-7.625-6.357-1.17-4.395-3.769-7.504-7.811-9.299v24.734c4.156 1.169 7.544 2.255 10.122 3.247a23.972 23.972 0 017.889 4.844 22.632 22.632 0 015.743 7.869c1.329 3.066 2.004 6.397 2.004 10.036 0 4.557-1.063 8.809-3.209 12.773-2.146 3.986-5.294 7.215-9.443 9.749-3.748 2.261-8.107 3.694-13.106 4.303v18.435a5.323 5.323 0 01-1.567 3.767c-2.121 2.121-6.141 2.121-8.262 0a5.325 5.325 0 01-1.565-3.767v-18.412c-3.807-.585-7.199-1.595-10.165-3.016-3.495-1.676-6.417-3.762-8.748-6.255-2.33-2.514-4.067-5.11-5.171-7.788-1.124-2.698-1.676-5.355-1.676-7.95 0-1.901.735-3.639 2.248-5.172 1.493-1.532 3.353-2.309 5.58-2.309 1.798 0 3.311.408 4.558 1.246 1.226.838 2.085 2.025 2.575 3.536 1.063 3.271 2.003 5.785 2.801 7.523.817 1.736 2.023 3.331 3.638 4.762 1.173 1.039 2.626 1.906 4.36 2.592v-27.741c-4.441-1.328-8.209-2.767-11.33-4.345-3.597-1.819-6.52-4.394-8.748-7.746-2.228-3.352-3.352-7.665-3.352-12.938 0-6.868 2.187-12.509 6.561-16.882 4-4.019 9.623-6.498 16.869-7.44v-8.984a5.32 5.32 0 011.565-3.762c2.132-2.127 6.127-2.141 8.262-.006a5.321 5.321 0 011.567 3.768v8.966zm0 52.756v25.262c3.206-.885 5.744-2.365 7.628-4.441 2.187-2.453 3.29-5.272 3.29-8.523 0-3.474-1.063-6.152-3.209-8.053-1.823-1.63-4.397-3.049-7.709-4.245zm-11.394-19.177v-21.421c-2.375.89-4.299 1.969-5.77 3.249-1.881 1.636-2.821 4.129-2.821 7.441 0 3.148.878 5.539 2.636 7.154 1.401 1.286 3.385 2.482 5.955 3.577z"/></svg>